# xmcd
# 
# Track frame offsets:
#     150
#     14436
#     32084
#     50705
#     65360
#     78177
#     95003
#     113836
#     129650
#     149310
#     176266
# 
# Disc length: 2531
# 
# Revision: 2
# Processed by: cddbd v1.5.2PL0 Copyright (c) Steve Scherf et al.
# Submitted via: fre:ac v1.0.27
# 
DISCID=9109e10b
DTITLE=Various Artist - Rec 43
DYEAR=0
DGENRE=Top 40
TTITLE0=Scouting For Girls - This Ain't A Love Song
TTITLE1=Eurythmics - Sex Crime (1984)
TTITLE2=Hall and Oates - Out Of Touch
TTITLE3=Bow Wow Wow - Do You Wanna Hold Me
TTITLE4=Showaddywaddy - Why Do Lovers Break Each Others Hearts
TTITLE5=Stevie Wonder - Part Time Lover
TTITLE6=A Flock Of Seagulls - The More You Live The More You Love
TTITLE7=Roger Daltrey - Walking In My Sleep
TTITLE8=G G Anderson - African Baby
TTITLE9=Barrabas - On The Road Again
TTITLE10=English Beat - Can't Get Used To Losing You
EXTD=OTS
EXTT0=
EXTT1=
EXTT2=
EXTT3=
EXTT4=
EXTT5=
EXTT6=
EXTT7=
EXTT8=
EXTT9=
EXTT10=
PLAYORDER=
